<svg width="349.992" height="35.063" viewBox="0 0 349.992 35.063" xmlns="http://www.w3.org/2000/svg">
    <g id="svgGroup" stroke-linecap="round" fill-rule="nonzero" font-size="9pt" stroke="#986b25" stroke-width="0.25mm"
       fill="#986b25" style="stroke:#986b25;stroke-width:0.25mm;fill:#986b25">
        <path d="M 155.836 0.469 L 155.836 34.594 L 152.953 34.594 L 133.336 5.391 L 133.336 34.594 L 130.43 34.594 L 130.43 0.469 L 133.336 0.469 L 152.977 29.696 L 152.977 0.469 L 155.836 0.469 Z M 349.992 0.469 L 349.992 34.594 L 347.109 34.594 L 327.492 5.391 L 327.492 34.594 L 324.586 34.594 L 324.586 0.469 L 327.492 0.469 L 347.133 29.696 L 347.133 0.469 L 349.992 0.469 Z M 316.406 18.399 L 316.406 30.539 A 7.971 7.971 0 0 1 314.37 32.515 Q 313.232 33.298 311.707 33.868 A 18.764 18.764 0 0 1 307.295 34.909 A 23.748 23.748 0 0 1 304.547 35.063 Q 300.539 35.063 297.422 33.141 A 12.685 12.685 0 0 1 292.813 28.137 A 15.287 15.287 0 0 1 292.594 27.704 A 17.027 17.027 0 0 1 291.075 22.645 A 21.866 21.866 0 0 1 290.859 19.641 L 290.859 15.329 A 22.781 22.781 0 0 1 291.283 10.799 Q 291.851 8 293.18 5.836 A 12.847 12.847 0 0 1 294.445 4.114 A 11.794 11.794 0 0 1 302.605 0.065 A 16.509 16.509 0 0 1 304.078 0 Q 309.352 0 312.563 2.684 A 10.573 10.573 0 0 1 316.028 8.248 A 14.337 14.337 0 0 1 316.383 10.079 L 313.5 10.079 A 11.344 11.344 0 0 0 312.776 7.527 A 7.839 7.839 0 0 0 310.441 4.395 A 8.538 8.538 0 0 0 307.062 2.787 Q 305.707 2.461 304.102 2.461 A 10.847 10.847 0 0 0 300.67 2.98 A 8.898 8.898 0 0 0 296.531 5.86 Q 293.742 9.258 293.742 15.446 L 293.742 19.477 A 19.47 19.47 0 0 0 294.053 23.034 A 14.871 14.871 0 0 0 295.066 26.356 A 11.367 11.367 0 0 0 296.858 29.221 A 9.853 9.853 0 0 0 298.863 30.985 Q 301.336 32.625 304.547 32.625 Q 307.937 32.625 310.454 31.656 A 11.648 11.648 0 0 0 310.945 31.454 A 9.932 9.932 0 0 0 312.032 30.891 Q 312.582 30.56 312.999 30.19 A 4.701 4.701 0 0 0 313.523 29.649 L 313.523 20.836 L 304.359 20.836 L 304.359 18.399 L 316.406 18.399 Z M 272.578 10.196 L 269.672 10.196 A 8.27 8.27 0 0 0 269.277 7.585 A 6.824 6.824 0 0 0 267.281 4.582 Q 264.891 2.461 260.859 2.461 A 14.271 14.271 0 0 0 258.357 2.668 Q 256.942 2.92 255.808 3.481 A 7.478 7.478 0 0 0 254.625 4.207 Q 252.305 5.954 252.305 8.766 A 5.095 5.095 0 0 0 253.959 12.638 A 6.473 6.473 0 0 0 254.391 13.008 A 10.309 10.309 0 0 0 255.939 13.996 Q 257.912 15.041 261.07 15.903 Q 265.664 17.157 268.031 18.504 Q 270.398 19.852 271.594 21.727 A 7.579 7.579 0 0 1 272.695 24.773 A 9.817 9.817 0 0 1 272.789 26.157 Q 272.789 30.188 269.566 32.625 A 11.421 11.421 0 0 1 265.496 34.545 Q 263.875 34.966 261.967 35.045 A 21.701 21.701 0 0 1 261.07 35.063 A 17.603 17.603 0 0 1 256.691 34.534 A 15.379 15.379 0 0 1 254.449 33.774 A 11.821 11.821 0 0 1 252.018 32.394 A 9.12 9.12 0 0 1 249.879 30.164 A 9.214 9.214 0 0 1 248.33 25.309 A 11.253 11.253 0 0 1 248.32 24.844 L 251.203 24.844 A 7.753 7.753 0 0 0 251.644 27.514 A 6.666 6.666 0 0 0 253.898 30.539 Q 256.317 32.412 260.171 32.603 A 18.079 18.079 0 0 0 261.07 32.625 A 14.695 14.695 0 0 0 263.705 32.403 Q 265.188 32.133 266.377 31.532 A 7.888 7.888 0 0 0 267.469 30.868 A 6.076 6.076 0 0 0 269.054 29.215 Q 269.883 27.906 269.883 26.204 A 6.501 6.501 0 0 0 269.579 24.169 A 5.272 5.272 0 0 0 267.891 21.715 A 8.838 8.838 0 0 0 266.509 20.799 Q 264.983 19.96 262.556 19.166 A 48.408 48.408 0 0 0 260.602 18.575 A 47.381 47.381 0 0 1 257.848 17.716 Q 255.218 16.801 253.568 15.793 A 11.017 11.017 0 0 1 252.867 15.329 A 8.849 8.849 0 0 1 250.703 13.176 A 7.493 7.493 0 0 1 249.398 8.813 A 7.516 7.516 0 0 1 251.866 3.085 A 9.759 9.759 0 0 1 252.621 2.45 A 11.65 11.65 0 0 1 257.215 0.374 Q 258.897 0.001 260.852 0 A 14.639 14.639 0 0 1 260.859 0 A 15.114 15.114 0 0 1 264.268 0.371 A 12.427 12.427 0 0 1 266.941 1.313 Q 269.625 2.625 271.102 4.969 A 9.604 9.604 0 0 1 272.578 10.196 Z M 81 0.469 L 81 34.594 L 78.094 34.594 L 78.094 18.235 L 58.594 18.235 L 58.594 34.594 L 55.711 34.594 L 55.711 0.469 L 58.594 0.469 L 58.594 15.797 L 78.094 15.797 L 78.094 0.469 L 81 0.469 Z M 112.148 0.469 L 112.148 2.93 L 100.453 2.93 L 100.453 34.594 L 97.57 34.594 L 97.57 2.93 L 85.898 2.93 L 85.898 0.469 L 112.148 0.469 Z M 47.695 34.594 L 44.156 25.032 L 28.664 25.032 L 25.148 34.594 L 22.125 34.594 L 35.039 0.469 L 37.781 0.469 L 50.695 34.594 L 47.695 34.594 Z M 36.398 3.985 L 29.555 22.571 L 43.242 22.571 L 36.398 3.985 Z M 186.891 34.594 L 183.352 25.032 L 167.859 25.032 L 164.344 34.594 L 161.32 34.594 L 174.234 0.469 L 176.977 0.469 L 189.891 34.594 L 186.891 34.594 Z M 175.594 3.985 L 168.75 22.571 L 182.438 22.571 L 175.594 3.985 Z M 2.906 0.469 L 2.906 32.157 L 19.758 32.157 L 19.758 34.594 L 0 34.594 L 0 0.469 L 2.906 0.469 Z M 215.695 34.594 L 206.367 34.594 L 206.367 0.469 L 215.906 0.469 A 15.798 15.798 0 0 1 220.582 1.143 A 13.962 13.962 0 0 1 223.43 2.379 Q 226.758 4.289 228.621 7.852 A 16.372 16.372 0 0 1 230.353 13.615 A 20.441 20.441 0 0 1 230.484 15.961 L 230.484 19.102 A 19.211 19.211 0 0 1 229.977 23.604 A 15.631 15.631 0 0 1 228.633 27.211 A 13.174 13.174 0 0 1 223.418 32.672 A 14.582 14.582 0 0 1 217.813 34.474 A 18.23 18.23 0 0 1 215.695 34.594 Z M 215.953 2.93 L 209.25 2.93 L 209.25 32.157 L 215.719 32.157 Q 221.109 32.157 224.367 28.582 Q 227.625 25.008 227.625 18.914 L 227.625 15.914 A 17.504 17.504 0 0 0 227.192 11.91 A 11.979 11.979 0 0 0 224.414 6.493 A 10.695 10.695 0 0 0 217.087 2.978 A 14.699 14.699 0 0 0 215.953 2.93 Z M 121.172 0.469 L 121.172 34.594 L 118.289 34.594 L 118.289 0.469 L 121.172 0.469 Z M 241.313 0.469 L 241.313 34.594 L 238.43 34.594 L 238.43 0.469 L 241.313 0.469 Z M 282.516 0.469 L 282.516 34.594 L 279.633 34.594 L 279.633 0.469 L 282.516 0.469 Z M 194.137 32.115 A 1.963 1.963 0 0 1 194.52 31.512 A 1.729 1.729 0 0 1 195.483 30.985 A 2.56 2.56 0 0 1 195.984 30.938 A 2.471 2.471 0 0 1 196.607 31.012 A 1.748 1.748 0 0 1 197.461 31.512 A 1.963 1.963 0 0 1 198 32.907 A 2.04 2.04 0 0 1 197.897 33.568 A 1.729 1.729 0 0 1 197.461 34.254 A 1.787 1.787 0 0 1 196.607 34.714 Q 196.321 34.782 195.984 34.782 A 2.685 2.685 0 0 1 195.388 34.719 Q 194.866 34.6 194.52 34.254 Q 193.992 33.727 193.992 32.907 A 2.116 2.116 0 0 1 194.137 32.115 Z"
              vector-effect="non-scaling-stroke"/>
    </g>
</svg>